<svg id="Capa_1" enable-background="new 0 0 510.002 510.002" height="512" viewBox="0 0 510.002 510.002" width="512" xmlns="http://www.w3.org/2000/svg"><g><path d="m510 47.001v128c0 8.28-6.72 15-15 15h-296c-8.23 0-14.93-6.63-15-14.87-1.25-140.286-2.429-131.388 2.26-137.64 2.886-3.512 7.16-5.49 11.6-5.49h297.14c8.28 0 15 6.72 15 15z" fill="#4d578c"/><path d="m510 47.001v128c0 8.28-6.489 15-14.485 15h-231.754v-158h231.754c7.996 0 14.485 6.72 14.485 15z" fill="#303a6d"/><path d="m510 111.001c0 4.139.011 383.994-.02 384.77-.49 8.318-7.278 14.23-14.98 14.23h-480c-8.28 0-15-6.72-15-15v-480c0-8.28 6.72-15 15-15h160c4.84 0 9.39 2.34 12.21 6.28 77.944 109 72.653 102.852 76.55 104.72 3.228 1.554-11.61 1.068 246.24 0z" fill="#86bfec"/><path d="m510 111.001c0 4.139.011 383.994-.02 384.77-.301 7.658-6.544 14.23-14.46 14.23h-231.76v-399c3.166 1.524-11.649 1.106 246.24 0z" fill="#69b0e8"/><path d="m302.52 448.521v61.48h-255.52v-61.48c0-70.45 57.31-127.76 127.76-127.76 70.433 0 127.76 56.922 127.76 127.76z" fill="#fed843"/><circle cx="174.762" cy="279.382" fill="#ffede4" r="71.381"/><path d="m143 112.001h-17v-17c0-8.284-6.716-15-15-15s-15 6.716-15 15v17h-17c-8.284 0-15 6.716-15 15s6.716 15 15 15h17v17c0 8.284 6.716 15 15 15s15-6.716 15-15v-17h17c8.284 0 15-6.716 15-15s-6.716-15-15-15z" fill="#ff6426"/><g fill="#d9f2ff"><path d="m431 214.001h-112c-8.284 0-15-6.716-15-15s6.716-15 15-15h112c8.284 0 15 6.716 15 15s-6.716 15-15 15z"/><path d="m431 278.001h-112c-8.284 0-15-6.716-15-15s6.716-15 15-15h112c8.284 0 15 6.716 15 15s-6.716 15-15 15z"/></g></g></svg>